<svg width="44" height="38" viewBox="0 0 44 38" fill="none" xmlns="http://www.w3.org/2000/svg">
<path d="M43 0.0357666H16.4286C16.1928 0.0357666 16 0.228624 16 0.464338V3.46434C16 3.70005 16.1928 3.89291 16.4286 3.89291H43C43.2357 3.89291 43.4286 3.70005 43.4286 3.46434V0.464338C43.4286 0.228624 43.2357 0.0357666 43 0.0357666ZM43 22.7501H16.4286C16.1928 22.7501 16 22.9429 16 23.1786V26.1786C16 26.4143 16.1928 26.6072 16.4286 26.6072H43C43.2357 26.6072 43.4286 26.4143 43.4286 26.1786V23.1786C43.4286 22.9429 43.2357 22.7501 43 22.7501ZM43 34.1072H0.999983C0.764268 34.1072 0.571411 34.3001 0.571411 34.5358V37.5358C0.571411 37.7715 0.764268 37.9643 0.999983 37.9643H43C43.2357 37.9643 43.4286 37.7715 43.4286 37.5358V34.5358C43.4286 34.3001 43.2357 34.1072 43 34.1072ZM43 11.3929H0.999983C0.764268 11.3929 0.571411 11.5858 0.571411 11.8215V14.8215C0.571411 15.0572 0.764268 15.2501 0.999983 15.2501H43C43.2357 15.2501 43.4286 15.0572 43.4286 14.8215V11.8215C43.4286 11.5858 43.2357 11.3929 43 11.3929Z" fill="#00C4F0"/>
</svg>
